<svg width="72" height="72" viewBox="0 0 72 72" fill="none" xmlns="http://www.w3.org/2000/svg">
<path d="M63.961 28.6498L58.291 26.7598L60.961 21.4198C61.2316 20.8608 61.3222 20.2317 61.2201 19.6191C61.118 19.0065 60.8283 18.4407 60.391 17.9998L54.001 11.6098C53.5577 11.166 52.9865 10.8724 52.3676 10.7701C51.7488 10.6679 51.1134 10.7622 50.551 11.0398L45.211 13.7098L43.321 8.03977C43.1214 7.44874 42.7425 6.93464 42.2371 6.56901C41.7316 6.20338 41.1248 6.0044 40.501 5.99977H31.501C30.8721 5.99814 30.2585 6.19422 29.7471 6.56029C29.2357 6.92636 28.8522 7.4439 28.651 8.03977L26.761 13.7098L21.421 11.0398C20.862 10.7691 20.2329 10.6786 19.6203 10.7807C19.0077 10.8828 18.4419 11.1725 18.001 11.6098L11.611 17.9998C11.1672 18.4431 10.8736 19.0143 10.7714 19.6331C10.6691 20.252 10.7634 20.8873 11.041 21.4498L13.711 26.7898L8.04099 28.6798C7.44996 28.8794 6.93586 29.2582 6.57023 29.7637C6.2046 30.2691 6.00562 30.876 6.00099 31.4998V40.4998C5.99936 41.1287 6.19544 41.7422 6.56151 42.2536C6.92758 42.7651 7.44512 43.1485 8.04099 43.3498L13.711 45.2398L11.041 50.5798C10.7703 51.1387 10.6798 51.7679 10.7819 52.3804C10.884 52.993 11.1737 53.5588 11.611 53.9998L18.001 60.3898C18.4443 60.8335 19.0155 61.1271 19.6344 61.2294C20.2532 61.3316 20.8885 61.2373 21.451 60.9598L26.791 58.2898L28.681 63.9598C28.8822 64.5556 29.2657 65.0732 29.7771 65.4392C30.2885 65.8053 30.9021 66.0014 31.531 65.9998H40.531C41.1599 66.0014 41.7734 65.8053 42.2849 65.4392C42.7963 65.0732 43.1797 64.5556 43.381 63.9598L45.271 58.2898L50.611 60.9598C51.1664 61.2236 51.7894 61.3104 52.3957 61.2085C53.0021 61.1065 53.5624 60.8207 54.001 60.3898L60.391 53.9998C60.8347 53.5565 61.1284 52.9852 61.2306 52.3664C61.3328 51.7476 61.2386 51.1122 60.961 50.5498L58.291 45.2098L63.961 43.3198C64.552 43.1202 65.0661 42.7413 65.4317 42.2358C65.7974 41.7304 65.9963 41.1236 66.001 40.4998V31.4998C66.0026 30.8708 65.8065 30.2573 65.4405 29.7459C65.0744 29.2345 64.5568 28.851 63.961 28.6498ZM60.001 38.3398L56.401 39.5398C55.5731 39.8083 54.8136 40.2537 54.1751 40.8451C53.5366 41.4364 53.0344 42.1596 52.7034 42.9645C52.3723 43.7694 52.2203 44.6366 52.2578 45.5061C52.2954 46.3756 52.5217 47.2265 52.921 47.9998L54.631 51.4198L51.331 54.7198L48.001 52.9198C47.2316 52.5365 46.3889 52.3229 45.5299 52.2936C44.6709 52.2644 43.8156 52.42 43.0219 52.7499C42.2283 53.0799 41.5148 53.5766 40.9297 54.2063C40.3447 54.836 39.9018 55.584 39.631 56.3998L38.431 59.9998H33.661L32.461 56.3998C32.1925 55.5719 31.7471 54.8124 31.1557 54.1739C30.5643 53.5354 29.8411 53.0332 29.0362 52.7021C28.2314 52.3711 27.3641 52.219 26.4947 52.2566C25.6252 52.2942 24.7743 52.5205 24.001 52.9198L20.581 54.6298L17.281 51.3298L19.081 47.9998C19.4803 47.2265 19.7065 46.3756 19.7441 45.5061C19.7817 44.6366 19.6297 43.7694 19.2986 42.9645C18.9675 42.1596 18.4653 41.4364 17.8268 40.8451C17.1883 40.2537 16.4288 39.8083 15.601 39.5398L12.001 38.3398V33.6598L15.601 32.4598C16.4288 32.1912 17.1883 31.7458 17.8268 31.1545C18.4653 30.5631 18.9675 29.8399 19.2986 29.035C19.6297 28.2302 19.7817 27.3629 19.7441 26.4934C19.7065 25.624 19.4803 24.7731 19.081 23.9998L17.371 20.6698L20.671 17.3698L24.001 19.0798C24.7743 19.479 25.6252 19.7053 26.4947 19.7429C27.3641 19.7805 28.2314 19.6285 29.0362 19.2974C29.8411 18.9663 30.5643 18.4641 31.1557 17.8256C31.7471 17.1871 32.1925 16.4276 32.461 15.5998L33.661 11.9998H38.341L39.541 15.5998C39.8095 16.4276 40.2549 17.1871 40.8463 17.8256C41.4377 18.4641 42.1609 18.9663 42.9657 19.2974C43.7706 19.6285 44.6378 19.7805 45.5073 19.7429C46.3768 19.7053 47.2277 19.479 48.001 19.0798L51.421 17.3698L54.721 20.6698L52.921 23.9998C52.5377 24.7691 52.3242 25.6118 52.2949 26.4708C52.2656 27.3299 52.4212 28.1851 52.7512 28.9788C53.0811 29.7725 53.5778 30.486 54.2075 31.071C54.8372 31.656 55.5852 32.099 56.401 32.3698L60.001 33.5698V38.3398ZM36.001 23.9998C33.6276 23.9998 31.3075 24.7036 29.3341 26.0221C27.3608 27.3407 25.8227 29.2148 24.9144 31.4076C24.0062 33.6003 23.7685 36.0131 24.2316 38.3408C24.6946 40.6686 25.8375 42.8068 27.5157 44.485C29.1939 46.1633 31.3321 47.3062 33.6599 47.7692C35.9877 48.2322 38.4005 47.9946 40.5932 47.0863C42.7859 46.1781 44.66 44.64 45.9786 42.6666C47.2972 40.6932 48.001 38.3731 48.001 35.9998C48.001 32.8172 46.7367 29.7649 44.4863 27.5145C42.2358 25.264 39.1836 23.9998 36.001 23.9998V23.9998ZM36.001 41.9998C34.8143 41.9998 33.6543 41.6479 32.6676 40.9886C31.6809 40.3293 30.9118 39.3922 30.4577 38.2959C30.0036 37.1995 29.8848 35.9931 30.1163 34.8292C30.3478 33.6653 30.9192 32.5962 31.7583 31.7571C32.5975 30.918 33.6666 30.3466 34.8304 30.115C35.9943 29.8835 37.2007 30.0024 38.2971 30.4565C39.3934 30.9106 40.3305 31.6796 40.9898 32.6663C41.6491 33.653 42.001 34.8131 42.001 35.9998C42.001 37.5911 41.3688 39.1172 40.2436 40.2424C39.1184 41.3676 37.5923 41.9998 36.001 41.9998Z" fill="#B1B1B1"/>
</svg>
