<svg width="14" height="14" viewBox="0 0 14 14" fill="none" xmlns="http://www.w3.org/2000/svg">
<path d="M13.1002 0.906663C12.8455 0.647038 12.5225 0.464808 12.1686 0.381046C11.8147 0.297284 11.4443 0.31541 11.1002 0.43333L1.66686 3.58666C1.28641 3.7112 0.953988 3.95076 0.715498 4.27229C0.477008 4.59381 0.344206 4.98144 0.335426 5.38167C0.326646 5.78189 0.44232 6.17497 0.666481 6.50664C0.890641 6.83832 1.21223 7.09223 1.58686 7.23333L5.0802 8.56666C5.15974 8.59708 5.23217 8.64356 5.29296 8.70321C5.35375 8.76285 5.4016 8.83438 5.43353 8.91333L6.76686 12.4133C6.90259 12.7827 7.14888 13.1012 7.47217 13.3254C7.79547 13.5497 8.18006 13.6689 8.57353 13.6667H8.6202C9.02088 13.6594 9.40923 13.5269 9.73083 13.2878C10.0524 13.0487 10.2911 12.7149 10.4135 12.3333L13.5669 2.88666C13.6815 2.54596 13.6986 2.17996 13.6161 1.83005C13.5337 1.48015 13.355 1.1603 13.1002 0.906663ZM12.3335 2.46666L9.14686 11.92C9.10986 12.0396 9.03554 12.1443 8.93478 12.2187C8.83402 12.2931 8.7121 12.3332 8.58686 12.3333C8.46237 12.3354 8.34019 12.2995 8.23659 12.2304C8.13299 12.1613 8.05286 12.0624 8.00686 11.9467L6.67353 8.44666C6.57686 8.19235 13.6161 1.61557 13.0006 1.00001C12.385 0.384447 5.81393 7.42484 5.5602 7.32666L2.0602 5.99333C1.94212 5.95007 1.84063 5.8708 1.77005 5.76672C1.69947 5.66265 1.66338 5.53903 1.66686 5.41333C1.66696 5.28809 1.70714 5.16618 1.78151 5.06541C1.85588 4.96465 1.96055 4.89033 2.0802 4.85333L11.5335 1.7C11.6421 1.65576 11.7611 1.64391 11.8762 1.66588C11.9913 1.68785 12.0976 1.74269 12.1823 1.82379C12.2669 1.90488 12.3262 2.00875 12.353 2.12284C12.3799 2.23692 12.3731 2.35635 12.3335 2.46666Z" fill="white"/>
</svg>
