<svg width="22" height="22" viewBox="0 0 22 22" fill="none" xmlns="http://www.w3.org/2000/svg">
<path d="M11.2748 11.2017C11.764 10.7783 12.1563 10.2546 12.4251 9.66627C12.694 9.07789 12.8332 8.43856 12.8332 7.79166C12.8332 6.57609 12.3503 5.4103 11.4907 4.55076C10.6312 3.69121 9.46541 3.20833 8.24984 3.20833C7.03426 3.20833 5.86847 3.69121 5.00893 4.55076C4.14939 5.4103 3.6665 6.57609 3.6665 7.79166C3.6665 8.43856 3.80566 9.07789 4.07454 9.66627C4.34342 10.2546 4.73572 10.7783 5.22484 11.2017C3.94163 11.7827 2.85293 12.7211 2.0889 13.9045C1.32487 15.0879 0.917853 16.4664 0.916504 17.875C0.916504 18.1181 1.01308 18.3513 1.18499 18.5232C1.3569 18.6951 1.59006 18.7917 1.83317 18.7917C2.07629 18.7917 2.30944 18.6951 2.48135 18.5232C2.65326 18.3513 2.74984 18.1181 2.74984 17.875C2.74984 16.4163 3.3293 15.0174 4.36075 13.9859C5.3922 12.9545 6.79115 12.375 8.24984 12.375C9.70853 12.375 11.1075 12.9545 12.1389 13.9859C13.1704 15.0174 13.7498 16.4163 13.7498 17.875C13.7498 18.1181 13.8464 18.3513 14.0183 18.5232C14.1902 18.6951 14.4234 18.7917 14.6665 18.7917C14.9096 18.7917 15.1428 18.6951 15.3147 18.5232C15.4866 18.3513 15.5832 18.1181 15.5832 17.875C15.5818 16.4664 15.1748 15.0879 14.4108 13.9045C13.6467 12.7211 12.558 11.7827 11.2748 11.2017V11.2017ZM8.24984 10.5417C7.70594 10.5417 7.17425 10.3804 6.72202 10.0782C6.26978 9.77603 5.91731 9.34654 5.70917 8.84404C5.50103 8.34154 5.44657 7.78861 5.55268 7.25516C5.65879 6.72172 5.9207 6.23171 6.30529 5.84712C6.68989 5.46252 7.17989 5.20061 7.71334 5.0945C8.24679 4.98839 8.79972 5.04285 9.30222 5.25099C9.80471 5.45913 10.2342 5.81161 10.5364 6.26384C10.8386 6.71608 10.9998 7.24776 10.9998 7.79166C10.9998 8.52101 10.7101 9.22048 10.1944 9.73621C9.67866 10.2519 8.97918 10.5417 8.24984 10.5417ZM17.1782 10.835C17.7648 10.1744 18.148 9.3583 18.2817 8.48497C18.4153 7.61165 18.2937 6.71831 17.9315 5.91249C17.5692 5.10668 16.9818 4.42272 16.2399 3.94297C15.4981 3.46321 14.6333 3.20809 13.7498 3.20833C13.5067 3.20833 13.2736 3.30491 13.1017 3.47681C12.9297 3.64872 12.8332 3.88188 12.8332 4.125C12.8332 4.36811 12.9297 4.60127 13.1017 4.77318C13.2736 4.94508 13.5067 5.04166 13.7498 5.04166C14.4792 5.04166 15.1787 5.33139 15.6944 5.84712C16.2101 6.36284 16.4998 7.06232 16.4998 7.79166C16.4985 8.27313 16.3709 8.74582 16.1296 9.16246C15.8883 9.57911 15.5418 9.92509 15.1248 10.1658C14.9889 10.2442 14.8754 10.3562 14.7952 10.491C14.7149 10.6258 14.6706 10.779 14.6665 10.9358C14.6627 11.0914 14.6985 11.2455 14.7707 11.3834C14.8429 11.5213 14.949 11.6386 15.079 11.7242L15.4365 11.9625L15.5557 12.0267C16.6606 12.5507 17.5928 13.3797 18.2424 14.4158C18.892 15.4519 19.232 16.6521 19.2223 17.875C19.2223 18.1181 19.3189 18.3513 19.4908 18.5232C19.6627 18.6951 19.8959 18.7917 20.139 18.7917C20.3821 18.7917 20.6153 18.6951 20.7872 18.5232C20.9591 18.3513 21.0557 18.1181 21.0557 17.875C21.0632 16.4683 20.7108 15.0831 20.0322 13.8509C19.3535 12.6187 18.3711 11.5805 17.1782 10.835V10.835Z" fill="#0C0C0C"/>
</svg>
