<svg width="22" height="22" viewBox="0 0 22 22" fill="none" xmlns="http://www.w3.org/2000/svg">
<path d="M11.0001 1.83333C9.79634 1.83333 8.60434 2.07043 7.49219 2.5311C6.38004 2.99177 5.36951 3.66698 4.51831 4.51818C2.79923 6.23727 1.83345 8.56884 1.83345 11C1.82544 13.1167 2.55835 15.1695 3.90512 16.8025L2.07179 18.6358C1.94459 18.7647 1.85843 18.9284 1.82417 19.1062C1.78991 19.2841 1.80909 19.4681 1.87929 19.635C1.95542 19.7999 2.07885 19.9385 2.2339 20.0332C2.38895 20.1278 2.56862 20.1743 2.75012 20.1667H11.0001C13.4313 20.1667 15.7629 19.2009 17.4819 17.4818C19.201 15.7627 20.1668 13.4311 20.1668 11C20.1668 8.56884 19.201 6.23727 17.4819 4.51818C15.7629 2.7991 13.4313 1.83333 11.0001 1.83333V1.83333ZM11.0001 18.3333H4.95929L5.81179 17.4808C5.98252 17.3091 6.07835 17.0767 6.07835 16.8346C6.07835 16.5924 5.98252 16.3601 5.81179 16.1883C4.61149 14.9894 3.86403 13.4113 3.69675 11.7231C3.52948 10.0348 3.95274 8.34075 4.89441 6.92956C5.83609 5.51836 7.23793 4.47732 8.86109 3.9838C10.4843 3.49028 12.2283 3.57482 13.7962 4.223C15.364 4.87118 16.6586 6.04291 17.4594 7.53856C18.2601 9.03421 18.5176 10.7612 18.1878 12.4254C17.8581 14.0896 16.9615 15.588 15.6509 16.6652C14.3402 17.7425 12.6967 18.332 11.0001 18.3333V18.3333Z" fill="#0C0C0C"/>
</svg>
