<svg width="16" height="16" viewBox="0 0 16 16" fill="none" xmlns="http://www.w3.org/2000/svg">
<path d="M7.99991 1.33334C7.12443 1.33334 6.25752 1.50578 5.44869 1.84081C4.63985 2.17584 3.90492 2.66691 3.28587 3.28596C2.03562 4.53621 1.33324 6.2319 1.33324 8.00001C1.32742 9.53943 1.86044 11.0324 2.83991 12.22L1.50658 13.5533C1.41407 13.6471 1.35141 13.7661 1.32649 13.8955C1.30158 14.0248 1.31552 14.1586 1.36658 14.28C1.42195 14.4 1.51171 14.5008 1.62448 14.5696C1.73724 14.6384 1.86791 14.6722 1.99991 14.6667H7.99991C9.76802 14.6667 11.4637 13.9643 12.714 12.7141C13.9642 11.4638 14.6666 9.76812 14.6666 8.00001C14.6666 6.2319 13.9642 4.53621 12.714 3.28596C11.4637 2.03572 9.76802 1.33334 7.99991 1.33334ZM7.99991 13.3333H3.60658L4.22658 12.7133C4.35074 12.5884 4.42044 12.4195 4.42044 12.2433C4.42044 12.0672 4.35074 11.8983 4.22658 11.7733C3.35363 10.9014 2.81003 9.7537 2.68837 8.52587C2.56672 7.29804 2.87454 6.06601 3.5594 5.03969C4.24425 4.01337 5.26377 3.25625 6.44425 2.89733C7.62474 2.5384 8.89315 2.59988 10.0334 3.07129C11.1736 3.54269 12.1151 4.39486 12.6975 5.4826C13.2799 6.57035 13.4672 7.82637 13.2273 9.03668C12.9875 10.247 12.3354 11.3367 11.3823 12.1202C10.4291 12.9036 9.23375 13.3324 7.99991 13.3333Z" fill="#0C0C0C"/>
</svg>
