<svg width="100" height="26" viewBox="0 0 100 26" fill="none" xmlns="http://www.w3.org/2000/svg">
<path d="M31.7235 2.78435C31.7235 2.22754 31.3495 1.77616 30.8881 1.77616C30.4267 1.77616 30.0527 2.22754 30.0527 2.78435V23.2157C30.0527 23.7725 30.4267 24.2239 30.8881 24.2239C31.3495 24.2239 31.7235 23.7725 31.7235 23.2157V2.78435Z" fill="#6661EE"/>
<path d="M86.0946 10.634C86.4866 9.948 87.0606 9.388 87.8166 8.954C88.5726 8.52 89.4336 8.303 90.3996 8.303C91.4356 8.303 92.3666 8.548 93.1926 9.038C94.0186 9.528 94.6696 10.221 95.1456 11.117C95.6216 11.999 95.8596 13.028 95.8596 14.204C95.8596 15.366 95.6216 16.402 95.1456 17.312C94.6696 18.222 94.0116 18.929 93.1716 19.433C92.3456 19.937 91.4216 20.189 90.3996 20.189C89.4056 20.189 88.5306 19.972 87.7746 19.538C87.0326 19.104 86.4726 18.551 86.0946 17.879V20H84.1836V4.46H86.0946V10.634ZM93.9066 14.204C93.9066 13.336 93.7316 12.58 93.3816 11.936C93.0316 11.292 92.5556 10.802 91.9536 10.466C91.3656 10.13 90.7146 9.962 90.0006 9.962C89.3006 9.962 88.6496 10.137 88.0476 10.487C87.4596 10.823 86.9836 11.32 86.6196 11.978C86.2696 12.622 86.0946 13.371 86.0946 14.225C86.0946 15.093 86.2696 15.856 86.6196 16.514C86.9836 17.158 87.4596 17.655 88.0476 18.005C88.6496 18.341 89.3006 18.509 90.0006 18.509C90.7146 18.509 91.3656 18.341 91.9536 18.005C92.5556 17.655 93.0316 17.158 93.3816 16.514C93.7316 15.856 93.9066 15.086 93.9066 14.204Z" fill="#0C0C0C"/>
<path d="M69.9082 14.204C69.9082 13.028 70.1462 11.999 70.6222 11.117C71.0982 10.221 71.7492 9.528 72.5752 9.038C73.4152 8.548 74.3462 8.303 75.3682 8.303C76.3762 8.303 77.2512 8.52 77.9932 8.954C78.7352 9.388 79.2882 9.934 79.6522 10.592V8.492H81.5842V20H79.6522V17.858C79.2742 18.53 78.7072 19.09 77.9512 19.538C77.2092 19.972 76.3412 20.189 75.3472 20.189C74.3252 20.189 73.4012 19.937 72.5752 19.433C71.7492 18.929 71.0982 18.222 70.6222 17.312C70.1462 16.402 69.9082 15.366 69.9082 14.204ZM79.6522 14.225C79.6522 13.357 79.4772 12.601 79.1272 11.957C78.7772 11.313 78.3012 10.823 77.6992 10.487C77.1112 10.137 76.4602 9.962 75.7462 9.962C75.0322 9.962 74.3812 10.13 73.7932 10.466C73.2052 10.802 72.7362 11.292 72.3862 11.936C72.0362 12.58 71.8612 13.336 71.8612 14.204C71.8612 15.086 72.0362 15.856 72.3862 16.514C72.7362 17.158 73.2052 17.655 73.7932 18.005C74.3812 18.341 75.0322 18.509 75.7462 18.509C76.4602 18.509 77.1112 18.341 77.6992 18.005C78.3012 17.655 78.7772 17.158 79.1272 16.514C79.4772 15.856 79.6522 15.093 79.6522 14.225Z" fill="#0C0C0C"/>
<path d="M67.995 4.46V20H66.084V4.46H67.995Z" fill="#0C0C0C"/>
<path d="M63.4569 4.46V20H61.5459V4.46H63.4569Z" fill="#0C0C0C"/>
<path d="M53.7623 20.189C52.6843 20.189 51.7043 19.944 50.8223 19.454C49.9543 18.964 49.2683 18.271 48.7643 17.375C48.2743 16.465 48.0293 15.415 48.0293 14.225C48.0293 13.049 48.2813 12.013 48.7853 11.117C49.3033 10.207 50.0033 9.514 50.8853 9.038C51.7673 8.548 52.7543 8.303 53.8463 8.303C54.9383 8.303 55.9253 8.548 56.8073 9.038C57.6893 9.514 58.3823 10.2 58.8863 11.096C59.4043 11.992 59.6633 13.035 59.6633 14.225C59.6633 15.415 59.3973 16.465 58.8653 17.375C58.3473 18.271 57.6403 18.964 56.7443 19.454C55.8483 19.944 54.8543 20.189 53.7623 20.189ZM53.7623 18.509C54.4483 18.509 55.0923 18.348 55.6943 18.026C56.2963 17.704 56.7793 17.221 57.1433 16.577C57.5213 15.933 57.7103 15.149 57.7103 14.225C57.7103 13.301 57.5283 12.517 57.1643 11.873C56.8003 11.229 56.3243 10.753 55.7363 10.445C55.1483 10.123 54.5113 9.962 53.8253 9.962C53.1253 9.962 52.4813 10.123 51.8933 10.445C51.3193 10.753 50.8573 11.229 50.5073 11.873C50.1573 12.517 49.9823 13.301 49.9823 14.225C49.9823 15.163 50.1503 15.954 50.4863 16.598C50.8363 17.242 51.2983 17.725 51.8723 18.047C52.4463 18.355 53.0763 18.509 53.7623 18.509Z" fill="#0C0C0C"/>
<path d="M35.9033 14.225C35.9033 13.035 36.1413 11.999 36.6173 11.117C37.0933 10.221 37.7513 9.528 38.5913 9.038C39.4453 8.548 40.4183 8.303 41.5103 8.303C42.9243 8.303 44.0863 8.646 44.9963 9.332C45.9203 10.018 46.5293 10.97 46.8233 12.188H44.7653C44.5693 11.488 44.1843 10.935 43.6103 10.529C43.0503 10.123 42.3503 9.92 41.5103 9.92C40.4183 9.92 39.5363 10.298 38.8643 11.054C38.1923 11.796 37.8563 12.853 37.8563 14.225C37.8563 15.611 38.1923 16.682 38.8643 17.438C39.5363 18.194 40.4183 18.572 41.5103 18.572C42.3503 18.572 43.0503 18.376 43.6103 17.984C44.1703 17.592 44.5553 17.032 44.7653 16.304H46.8233C46.5153 17.48 45.8993 18.425 44.9753 19.139C44.0513 19.839 42.8963 20.189 41.5103 20.189C40.4183 20.189 39.4453 19.944 38.5913 19.454C37.7513 18.964 37.0933 18.271 36.6173 17.375C36.1413 16.479 35.9033 15.429 35.9033 14.225Z" fill="#0C0C0C"/>
<path fill-rule="evenodd" clip-rule="evenodd" d="M19.1092 7.82796C18.0524 6.55675 16.6285 5.64323 15.0326 5.21245C13.4366 4.78167 11.7465 4.85469 10.1936 5.42151C8.6407 5.98834 7.30096 7.02126 6.35777 8.37887C5.41458 9.73649 4.91404 11.3524 4.92467 13.0055C4.9353 14.6586 5.45659 16.2679 6.41717 17.6133L4.72396 18.8222L6.41717 17.6133C7.37775 18.9587 8.73066 19.9743 10.2907 20.5211C11.8508 21.0679 13.5417 21.1192 15.132 20.6679C16.7223 20.2166 18.1343 19.2848 19.1746 18.0001C19.8977 17.1072 21.2078 16.9695 22.1007 17.6926C22.9937 18.4157 23.1314 19.7258 22.4083 20.6187C20.8281 22.5701 18.6834 23.9854 16.2679 24.6708C13.8523 25.3563 11.284 25.2784 8.91436 24.4479C6.54477 23.6173 4.4898 22.0747 3.03075 20.0312C1.57171 17.9877 0.779912 15.5431 0.763763 13.0323C0.747612 10.5214 1.5079 8.06689 2.94053 6.00478C4.37317 3.94266 6.40813 2.37373 8.76684 1.51277C11.1255 0.651811 13.6927 0.540899 16.1169 1.19522C18.5411 1.84954 20.7037 3.23712 22.3089 5.16798C23.0434 6.05157 22.9226 7.36331 22.039 8.09785C21.1554 8.83238 19.8437 8.71155 19.1092 7.82796Z" fill="#6661EE"/>
<path d="M17 13C17 15.2091 15.2091 17 13 17C10.7909 17 9 15.2091 9 13C9 10.7909 10.7909 9 13 9C15.2091 9 17 10.7909 17 13Z" fill="#6661EE"/>
</svg>
